<svg width="16" height="16" viewBox="0 0 16 16" fill="none" xmlns="http://www.w3.org/2000/svg">
    <path d="M0.280712 14.2833L6.57371 8L0.280712 1.71665C0.0985542 1.52834 -0.00224062 1.27612 3.78025e-05 1.01433C0.00231622 0.752534 0.107485 0.502107 0.292894 0.316983C0.478302 0.131859 0.729114 0.0268511 0.991311 0.0245762C1.25351 0.0223013 1.50611 0.122942 1.69471 0.30482L7.98771 6.58817L14.2807 0.30482C14.373 0.209456 14.4833 0.133391 14.6053 0.0810623C14.7273 0.0287337 14.8585 0.00118975 14.9913 3.76991e-05C15.1241 -0.00111435 15.2558 0.0241483 15.3787 0.0743521C15.5016 0.124556 15.6132 0.198695 15.7071 0.292444C15.801 0.386193 15.8753 0.497673 15.9255 0.620381C15.9758 0.743089 16.0011 0.874567 16 1.00714C15.9988 1.13972 15.9712 1.27074 15.9188 1.39255C15.8664 1.51437 15.7902 1.62455 15.6947 1.71665L9.40171 8L15.6947 14.2833C15.7902 14.3755 15.8664 14.4856 15.9188 14.6074C15.9712 14.7293 15.9988 14.8603 16 14.9929C16.0011 15.1254 15.9758 15.2569 15.9255 15.3796C15.8753 15.5023 15.801 15.6138 15.7071 15.7076C15.6132 15.8013 15.5016 15.8754 15.3787 15.9256C15.2558 15.9759 15.1241 16.0011 14.9913 16C14.8585 15.9988 14.7273 15.9713 14.6053 15.9189C14.4833 15.8666 14.373 15.7905 14.2807 15.6952L7.98771 9.41183L1.69471 15.6952C1.50611 15.8771 1.25351 15.9777 0.991311 15.9754C0.729114 15.9732 0.478302 15.8681 0.292894 15.683C0.107485 15.4979 0.00231622 15.2475 3.78025e-05 14.9857C-0.00224062 14.7239 0.0985542 14.4717 0.280712 14.2833Z" fill="#6F6F6F"/>
</svg>
